<svg xmlns="http://www.w3.org/2000/svg" id="b" width="502.3" height="156.3" viewBox="0 0 502.3 156.3"><path d="M21.9,119.1s21.8,13.3,31.5,17.9c35.9,17.2,78.8,0,81.5-1.1,15.3-6.4,27.7-18.2,52.6-42,24-23,22.9-26.2,41.9-43.7,24.8-22.8,41.7-38.4,68.5-45.9,10.3-2.9,45.6-11.2,77.4,7.2,7.9,4.6,22.5,13,28,30.1,4.5,14.2,3.1,35.7-11.5,45.9-7.9,5.5-19.5,7.7-29.4,3.6-2.5-1-9.6-4-13.1-11.8-.3-.6-4.1-9.5.2-17.6,1.8-3.5,4.9-6.4,6.3-7.3.2-.1,2-1.3,4.5-2.8,0,0,0,0,0,0,0,0-3.2,6.7-3.9,11.8,0,.6-1.4,11.2,5.4,16.8,6.3,5.2,16.2,3.4,22.2-.7,9.4-6.4,9.3-18.5,9.3-20.4-.1-16.8-16.4-26.4-17.2-26.9-17.8-10.2-38.2.4-43,2.9-2.8,1.5-10.1,5.6-16.8,13.6-3.6,4.3-11.6,15.2-12.9,30.5-2.5,28.4,20.1,47.3,21.5,48.4,14.8,11.9,31.1,12.5,43.7,12.9,10,.3,31.2,1.1,51.3-12.9,20.1-14,26.9-34.5,30.5-45.2,2.2-6.6,5.7-17.1,5-30.8-.6-13-5-29.8-5-29.8,0,0,0,0,0,0,3.6,3.6,12.6,12.8,19.7,24.7,2.6,4.3,8.6,14.6,11.6,29.5,0,0,4.1,19.9-.2,38.3-.4,1.6-2.1,8.3-5,16.5-.2.5-.3.8-.4,1.1-2.6,7.2-6.5,16.3-6.4,16.3,0,0-437.7-.5-437.8-.5,0,0-10-28.7-10-28.7Z" style="fill:#048dbd;"></path><line y1="152.1" x2="502.3" y2="152.1" style="fill:none; stroke:#000; stroke-miterlimit:10; stroke-width:8.4px;"></line></svg>